<svg width="49" height="44" fill="none" xmlns="http://www.w3.org/2000/svg"><path fill-rule="evenodd" clip-rule="evenodd" d="M4.1 32.9c.5-3.1-.8-6.3-2.3-9.2l-.6-1.1-1.1-2.3v-.7l.8-3.9c.1-.4.4-.7.8-.8 2-.6 8.2-2.8 8.8-6.1l.1-.2L16 3.4c0-.1.3-.1.4 0 .5.7 2 2.1 4 1.4l-.6-.7a.3.3 0 010-.4l2.4-2.3.2-.1H30c.3 0 .4.3.3.5l-2.4 3c-.1 0-.1.3 0 .4l2.6 1.7 2.3 1.5c.8.5 1.9.2 2.2-.7a12.5 12.5 0 00.8-4.8l1-2.7c.1-.2.5-.3.6 0 .5.8 1.4 2.7 1.4 5l.5-.4h.5l1 1.5.1.2c0 .8-.2 5 3.5 6.7l.1.2 4.5 9v4a2 2 0 01-.6 1.6c-1.8 1.5-6.4 6-6.7 9l-.3.3h-8-.1a15 15 0 01-3.8-7.4c0-.3-.4-.4-.6-.2l-1.8 2c-.1.2-.4.3-.6.3a.6.6 0 01-.6-.5c-.2-1.2-1-4.3-5-4.3-2 0-5.2.8-8.1 1.7 0 0-3.3 1-5.8 4.3l-.3.2h-2a.5.5 0 01-.5-.5zm36.4 10.3c-.1.7-1 1-1.5.6-1-.7-2.6-2-4-3.8-.3-.3 0-.7.3-.7H41c.2 0 .4.3.4.5l-.9 3.4z" fill="#0E8784"/></svg>