<svg width="52" height="50" fill="none" xmlns="http://www.w3.org/2000/svg"><path fill-rule="evenodd" clip-rule="evenodd" d="M28.3 5V0h-5.5l-2 3.4 2.5 2.5 5-.9zM22.5 11l-6.7-6.7-3.3 3.3 5.6 5.1 4.4-1.7zm7 3.9L26 12.3l.6-2.7 5.7-.4L40 15l-1.6 5-2.5 1.7-2.5-1.7v-2.5l-2.5-3.3-1.4.6zM49 47.5h-1.7a.8.8 0 010-1.7h1.7a.8.8 0 110 1.7zm0-11.7h1.6a.8.8 0 000-1.6h-1.6a.8.8 0 000 1.6zm-10 0l5-3.3v-3.3l-5-5-3.3 3.3-3.4-3.3-3.3 2.5 3.3 4.1-2.5 5-2.5-4.1-5.8-2.5 3.3-6.7 2.5-3.3-5.8-3.3-3.3 3.3L7.5 8.4.8 15.9l2 8L0 26.7l2.5 7.5 20 10 2.4-4.2 5 3.3 3.4 6.7 4.1-6.7h6.7l.8-5-5.8-2.5z" fill="#0E8784"/></svg>