<svg width="236" height="26" fill="none" xmlns="http://www.w3.org/2000/svg"><path fill-rule="evenodd" clip-rule="evenodd" d="M75.7 23.3c0 .5-.3.8-.8.8h-9l-.5-.2a.7.7 0 01-.2-.6V23c.2-.2.3-.3.5-.3l.7-.3c.2 0 .3-.1.4-.3l.2-.6v-9.6l-.1-.4a1 1 0 00-.5-.3l-.9-.3c-.3-.1-.4-.2-.5-.4a.8.8 0 01-.2-.5c0-.2 0-.3.2-.5l.6-.1H67v-.1l-.2-.6a254.6 254.6 0 00-1.2-1.9l-.2-1.5c0-1.4.5-2.6 1.5-3.5C67.9 1 69.2.4 71 .4c1.2 0 2.2.2 3 .6a3.8 3.8 0 012.3 3.5c0 1-.3 1.6-.8 2-.4.4-1 .7-1.7.7-.8 0-1.4-.3-1.9-.8s-.7-1.2-.7-2V2.9c0-.4 0-.7-.2-.8-.2-.2-.4-.3-.7-.3-.4 0-.7.1-1 .4a2 2 0 00-.2 1.2c0 .5 0 1 .3 1.5l1 1.3a37 37 0 001.9 2.2v.1c.2.2.3.5.3.7h2.5l.5.2c.2.1.2.3.2.5 0 .3 0 .6-.4.8-.3.2-.7.3-1.3.3h-1.2v10.3c0 .3 0 .6.2.7 0 .2.2.3.4.3l1.4.2c.3 0 .5.2.6.3l.2.5zm-32.1.4c-1 .5-2.2.7-3.5.7-1.3 0-2.6-.3-3.7-.9-1-.6-2-1.4-2.6-2.5a8 8 0 01-.9-4c0-1.6.3-3 1-4.2A7.4 7.4 0 0140.7 9c1.4 0 2.5.2 3.4.6 1 .4 1.6 1 2.1 1.6.5.7.7 1.5.7 2.3 0 .9-.2 1.6-.7 2-.5.6-1.2.8-2 .8-1 0-1.6-.2-2.1-.7a3 3 0 01-.7-2.1v-1.1c0-.5 0-1-.3-1.2a1 1 0 00-.8-.4c-.4 0-.7.1-1 .4a3 3 0 00-.7 1.3l-.2 2.2c0 1.2.2 2.2.6 3 .3 1 .8 1.5 1.4 2a5 5 0 004.2.3c.6-.3 1-.7 1.3-1.3l.4-.3h.2l.3.1v.5a5.7 5.7 0 01-3.2 4.8zm16.5-.3c-1.2.6-2.6 1-4.2 1s-3-.4-4.2-1a7 7 0 01-2.8-2.7 8 8 0 01-1-4 7.5 7.5 0 014-6.8c1.2-.6 2.6-1 4.2-1s3 .4 4.2 1c1.1.7 2 1.6 2.7 2.8a8 8 0 011 4 7.5 7.5 0 01-3.9 6.7zm-3-.8c-.3.1-.7 0-1-.4l-.9-1.8a26 26 0 01-1.2-6.9c0-.9 0-1.6.2-2 .1-.5.4-.8.7-.8.3-.1.7 0 1 .4l1 1.8a25 25 0 011 9c-.2.4-.5.7-.8.7zm29.2 1.5c.5 0 .7-.3.7-.8 0-.2 0-.4-.2-.5a.9.9 0 00-.5-.3l-1.4-.2a.6.6 0 01-.5-.3V11h1c.7 0 1.1 0 1.4-.3.3-.2.4-.5.4-.8 0-.2 0-.4-.2-.5a1 1 0 00-.6-.1H84v-.1a2 2 0 00-.3-.7l-1-1.2a37 37 0 01-2-2.4l-.3-1.5c0-.5.1-1 .3-1.2.2-.3.5-.4 1-.4.3 0 .5 0 .6.3.2.1.3.4.3.8v1.5c0 .8.2 1.5.7 2 .5.5 1.1.8 1.9.8.7 0 1.3-.3 1.7-.7.5-.4.7-1 .7-2A3.8 3.8 0 0085.3 1c-.8-.4-1.7-.6-2.9-.6-1.8 0-3.2.5-4.2 1.3-1 1-1.4 2-1.4 3.5a4.2 4.2 0 00.8 2.6 254.6 254.6 0 01.8 1.4h-1.5l-.5.2c-.2.2-.2.3-.2.5l.1.5c.1.2.3.3.6.4l1 .3.3.3.2.4v9.6c0 .3 0 .5-.2.6 0 .2-.2.3-.4.3l-.7.3a1 1 0 00-.4.3l-.2.4.2.6.6.2h9zm12.7-.5c-1 .5-2.2.8-3.6.8-1.5 0-2.9-.3-4-1-1.2-.6-2-1.5-2.7-2.6-.7-1.2-1-2.5-1-4 0-1.6.3-3 1-4.1a6.7 6.7 0 012.6-2.8c1.2-.6 2.7-1 4.3-1 1.4 0 2.6.3 3.7.9a6 6 0 013.1 5.4c0 .5 0 1-.4 1.2-.3.3-.7.4-1.1.4h-7.5v.1c.2 1 .6 1.7 1 2.2.9 1 2 1.4 3.3 1.4.9 0 1.6-.2 2.3-.6a3 3 0 001.4-1.7l.3-.2.3-.1.3.1v.5c0 1-.2 2-.8 3-.6.8-1.4 1.5-2.5 2zm-5.8-8a13 13 0 01.2-3.3L94 11c.3-.2.5-.4.8-.4.4 0 .8.4 1.1 1 .3.7.5 1.7.5 3.3 0 .4-.2.7-.6.7h-2.6zm21.4 8c-1 .5-2.3.8-3.6.8-1.6 0-2.9-.3-4-1-1.2-.6-2.1-1.5-2.8-2.6-.6-1.2-1-2.5-1-4 0-1.6.4-3 1-4.1a6.7 6.7 0 012.7-2.8c1.2-.6 2.6-1 4.3-1 1.4 0 2.6.3 3.6.9a6 6 0 013.2 5.4c0 .5-.1 1-.4 1.2-.3.3-.7.4-1.2.4H109v.1a4.1 4.1 0 004.3 3.6c.9 0 1.6-.2 2.3-.6a3 3 0 001.3-1.7l.4-.2.3-.1.2.1.1.5c0 1-.2 2-.8 3-.6.8-1.4 1.5-2.5 2zm-5.8-8a12.6 12.6 0 01.2-3.3l.6-1.3c.3-.2.5-.4.8-.4.4 0 .8.4 1 1 .4.7.6 1.7.6 3.3 0 .4-.2.7-.6.7h-2.6zm19.7 8.3l-.6.2h-8.1l-.6-.2a.7.7 0 01-.2-.6l.1-.4.3-.3.4-.2c.2 0 .3-.2.3-.3V13v-.6l-.3-.3h-.4a1 1 0 01-.4-.3v-.4l.1-.4c.1-.2.3-.3.6-.4l4.6-1.3.7-.3h.4c.2 0 .4 0 .5.2l.1.7.2 2.6v-.1l.2-.6a5 5 0 011.6-2.2c.6-.4 1.3-.7 2-.7 1 0 1.7.3 2.2 1 .5.6.8 1.5.8 2.8 0 1.3-.3 2.2-.8 2.8-.5.6-1.2 1-2 1s-1.4-.3-1.8-.7c-.4-.4-.6-1-.6-1.7v-.7c0-.3 0-.4-.2-.6l-.4-.2c-.2 0-.4 0-.5.3-.2.2-.3.5-.3 1l-.2 1.5v5.9c0 .3 0 .5.2.7 0 .2.2.3.4.3l1.3.3c.2 0 .4 0 .5.2l.1.5c0 .2 0 .4-.2.6zm13 .5c1.6 0 3-.4 4.3-1a7.5 7.5 0 003.9-6.7 8 8 0 00-1-4c-.7-1.2-1.6-2.1-2.8-2.8-1.2-.6-2.5-1-4.1-1-1.6 0-3 .4-4.3 1a7.6 7.6 0 00-3.9 6.7 8 8 0 001 4 7 7 0 002.8 2.8c1.2.6 2.6 1 4.1 1zm.3-2.2c.3.4.6.5 1 .4.3 0 .6-.3.7-.8.2-.4.3-1.1.2-2a23.4 23.4 0 00-2.1-8.7c-.4-.4-.7-.5-1-.4-.4 0-.6.3-.8.8l-.2 2a25.6 25.6 0 002.2 8.7zm20.8 2.2c1 0 1.7-.2 2.3-.5.6-.3 1-.7 1.3-1.2.3-.5.4-.9.4-1.3V21l-.4-.2h-.1l-.1.2c0 .2-.2.3-.3.4l-.4.1c-.1 0-.3 0-.4-.2l-.1-.5v-7.3c0-1.5-.5-2.6-1.5-3.4-1-.8-2.5-1.2-4.6-1.2-1.6 0-3 .2-4 .6-1.2.4-2 1-2.6 1.6a3 3 0 00-.8 2c0 .6.2 1.2.6 1.6.4.3 1 .5 1.8.5 1 0 1.7-.3 2.2-.8.6-.5.9-1.1.9-2v-1.2c0-.3 0-.6.2-.7.2-.2.5-.3.7-.3.4 0 .6.1.8.4.2.2.2.5.2.9v4.8l-1-.1h-.1c-2.4 0-4.1.4-5.3 1.2a3.8 3.8 0 00-1.7 3.3c0 1 .4 2 1.2 2.7.8.6 1.8 1 3.1 1 1 0 2-.2 2.8-.6.6-.3 1.1-.7 1.5-1.2.2.4.4.7.8 1a4 4 0 002.6.8zm-5.6-3.1c.3.3.6.5 1 .5h.2l.5-.1v-4.3l-.7-.1c-.4 0-.8.2-1 .6-.3.4-.4 1-.4 1.7 0 .8.1 1.3.4 1.7zm17.1 3.1c2 0 3.4-.4 4.5-1.3 1-.9 1.5-2.1 1.5-3.6 0-1-.2-1.8-.5-2.5-.4-.7-1-1.3-1.8-1.9-1-.5-2.1-1-3.7-1.5l-1.4-.6-.6-.6-.2-.7c0-.4.1-.7.4-1 .3-.2.7-.3 1.2-.3.7 0 1.4.3 2.1.8.7.5 1.4 1.3 2.2 2.5l.6.6h.6c.2 0 .4-.2.4-.4v-1l-.4-3c0-.4-.2-.6-.3-.7a.6.6 0 00-.5-.2c-.1 0-.4 0-.6.2a32.5 32.5 0 00-1.4.5s-.3 0-.5-.2a5.3 5.3 0 00-2.6-.6c-1.2 0-2.2.2-3 .6a4.7 4.7 0 00-2.9 4.4c0 1 .1 1.8.5 2.5a5 5 0 001.8 1.8c.8.5 1.8.9 3 1.2l1.8.6.9.7.2.9c0 .4-.1.7-.4 1-.3.3-.7.4-1.2.4-.6 0-1-.1-1.5-.3a5 5 0 01-1.5-1.2l-1.7-2.3-.6-.5a.8.8 0 00-.7 0c-.2.1-.4.3-.5.6l.1 1 .5 3.3c0 .3.2.6.3.7l.5.1.7-.1.8-.4.6-.2c.2 0 .4 0 .6.2l1 .4 1.7.1zm15.5-.6c-.8.4-1.6.6-2.6.6-1.6 0-2.9-.4-3.7-1.2-.8-.8-1.3-2-1.3-3.8v-7.5-.5l-.3-.3-.8-.3c-.2 0-.3-.2-.4-.3V10c0-.2 0-.4.2-.5.2-.2.4-.2.6-.2h.8c.1 0 .2 0 .3-.2l.4-.4 3-2.6.7-.6.7-.2.6.3.2.7v3h3.4l.5.1c.2.1.2.3.2.5 0 .3-.1.6-.4.8-.3.2-.7.3-1.3.3H188v7.6c0 .8.1 1.4.4 1.8.3.4.7.6 1.2.6.2 0 .4 0 .6-.2l.6-.3.4-.6.4-.6h.3l.1.6c0 .9-.3 1.7-.7 2.3-.5.7-1 1.2-1.7 1.6zm10.6.6c1.4 0 2.6-.3 3.7-.8 1-.6 1.9-1.3 2.4-2.2.6-.9 1-1.9 1-3l-.2-.4-.3-.1h-.2l-.4.3A3 3 0 01205 20c-.7.4-1.5.6-2.3.6-1.4 0-2.5-.5-3.3-1.4-.5-.5-.8-1.3-1-2.2h7.4c.5 0 .9-.2 1.1-.4l.1-.1c.3-.3.4-.7.4-1.2 0-1.2-.3-2.2-.8-3.2a6 6 0 00-2.4-2.2c-1-.6-2.2-.9-3.6-.9-1.7 0-3.1.4-4.3 1-1.2.7-2 1.6-2.7 2.8-.6 1.2-1 2.5-1 4.1 0 1.5.4 2.8 1 4 .7 1.1 1.6 2 2.7 2.6 1.2.7 2.5 1 4 1zm-2.1-9.7v.8h2.5c.5 0 .7-.2.7-.6 0-1.6-.2-2.6-.5-3.3-.4-.6-.7-1-1.1-1a1 1 0 00-.8.4l-.6 1.3-.2 2.4zm19 9.4l.7-.2.2-.6c0-.2 0-.3-.2-.5l-.4-.2-1.3-.3a.6.6 0 01-.4-.3l-.2-.7v-5.9l.1-1.6c.1-.4.2-.7.4-.9.1-.2.3-.3.5-.3s.3 0 .4.2l.2.6v.7c0 .7.2 1.3.6 1.7.4.4 1 .6 1.8.6s1.5-.3 2-.9c.5-.6.8-1.5.8-2.8 0-1.3-.3-2.2-.8-2.8-.5-.7-1.2-1-2.1-1-.8 0-1.5.3-2.2.7a5 5 0 00-1.5 2.2l-.2.6-.2-2.5-.1-.7c-.1-.2-.3-.2-.5-.2a2 2 0 00-.4 0 5 5 0 00-.7.3l-4.7 1.3-.5.4-.2.4.1.4.4.3h.4l.3.3v9.7l-.3.3-.4.2-.3.3-.1.4c0 .3 0 .4.2.6l.5.2h8.2zm17.3-1c-1 .9-2.6 1.3-4.5 1.3a6 6 0 01-2.7-.5l-.6-.2c-.2 0-.4 0-.7.2l-.7.4-.7.1-.5-.1-.3-.7-.5-3.3v-1c0-.3.2-.5.4-.6h.7c.2 0 .4.3.6.5a18 18 0 001.7 2.3c.5.5 1 1 1.5 1.2.4.2 1 .3 1.4.3.6 0 1-.1 1.3-.4.3-.3.4-.6.4-1 0-.3 0-.6-.2-.9l-1-.7-1.7-.6c-1.2-.3-2.2-.7-3-1.2a5 5 0 01-1.8-1.8 5 5 0 01-.6-2.4 4.7 4.7 0 013-4.5 7.2 7.2 0 014.6-.4l1 .4c.2.2.4.2.5.2l.6-.2A36.7 36.7 0 01234 9c.2 0 .4 0 .5.2l.2.6.5 3V14c0 .2-.2.4-.4.5l-.6-.1-.6-.6c-.8-1.2-1.5-2-2.2-2.5-.7-.5-1.4-.8-2.1-.8-.5 0-1 .1-1.2.4-.3.2-.4.5-.4.9 0 .2 0 .5.2.7 0 .2.3.4.6.6l1.4.6c1.6.5 2.8 1 3.7 1.5.8.6 1.4 1.2 1.8 1.9.3.7.5 1.5.5 2.5 0 1.5-.5 2.7-1.5 3.6z" fill="#fff"/><path fill-rule="evenodd" clip-rule="evenodd" d="M14.4 4.4C10.9 1 5.7.4 2.8 3.4c-3 2.8-2.4 8 1.1 11.5 1 1 2 1.7 3.2 2.2.3-2.2 1.4-4.3 3-6l-1.6-.5C5 9.6 3.4 6.8 3 3.5l.9 1.2c.6.8 1.1 1.6 2 2.3C7 8 8.2 8.3 9.7 8.8h.2c.7.2 1.3.5 1.8.8 1.4-1 3-1.7 4.8-2-.6-1.1-1.3-2.2-2.2-3.2zM8.4 18a10 10 0 013-6C15 8.4 20.1 8 23 11c3 2.8 2.4 8-1.1 11.5a10 10 0 01-6.8 3c-2 0-3.6-.6-4.8-1.8a6.8 6.8 0 01-1.9-5.7zm5.2 1.8c1.1-.9 2.4-1.2 3.7-1.6 3.5-1 5.1-3.8 5.5-7.1l-.9 1.2c-.6.8-1.1 1.6-2 2.3-1.1 1-2.5 1.3-4 1.8-3.4 1-5 3.8-5.4 7l.9-1.1c.6-1 1.3-1.8 2.2-2.5z" fill="#0E8784"/></svg>