<svg width="42" height="51" fill="none" xmlns="http://www.w3.org/2000/svg"><path fill-rule="evenodd" clip-rule="evenodd" d="M6 7L6 6.9h.2V7c2.5 1.6 3.9.8 4.9-1.4l.3-1c1.2-3.3 3.9-3.4 6.5-3.4.8 0 1.6 0 2.4-.2 1.8-.3 1.2 1.4.4 2.3l-.9.7c-.8.6-1.6 1.3-2 2.8H24c2.6-.1 3 .9 1.6 3l-.8 1.5-1 1.8c-1.6 1.9-1.5 3.2 1 4 .6.3 1.4.8 1.5 1.4.8 2.7 2.6 4.7 4.4 6.7 2 2.2 4 4.4 4.5 7.5v.4c.2.7.2 1 1.3.9 1.8-.2 4-.2 4.5 2.1.5 2.3-1.1 3.7-2.8 4.9l-.6.6-.3.4c.2.7.8.7 1.3.7.6 0 1 0 1 .7.1 1.1-1.1 1.6-2 2a41.5 41.5 0 01-13 1.6c-2.4 0-4.5.7-6.5 1.4-1.5.6-3 1.1-4.5 1.3l-.7.2c-.8.2-1.7.4-3-.2 1.5-.6 2.6-1.7 3.7-3 1.6-1.7 3.2-3.5 6.6-3.4l-1.5-.6L17 42c-2.3-.9-2.6-2.5-.9-4.4 1-1 1.7-2.2-.5-2.7-1.3-.2-1-.7-.6-1.3.2-.4.4-.9.1-1.3-.3-.5.9-.6 1.6-.6 2 .3 5 .7 4.2-2.4 0-.2 0-.5-.2-.8-.4-2-1-5-4.5-4.5-3.6.4-4.8-.5-2.5-3.8-.4-.2-1 0-1.7.3-1.2.4-2.2.8-1.8-2l-.4-.5c-.3 0-.5.3-.8.6-.6.6-1.2 1.1-1.7-.2-.3-.9.3-1.1 1-1.4.7-.3 1.5-.6 1.5-1.8L9 15c-.7 0-1.5 0-1-.8 2-2.7.5-3.9-1.2-5.2l-.5-.4c-.2-.2-.1-.4 0-.7a2 2 0 000-.5V7H6zM1.5 27.2C.9 27 .3 26.5.3 25.7c.2-1.6 4.9-4.8 7-4.6 2 0 2.6 1.4 3.2 2.6l.7 1.4c0 1.8-1.2 2.9-2.4 2.9-2.3 0-4.6-.4-7-.8h-.3zM8.2 1.9c-2.6.7-4.1 2-4 4.9-1.7.2-1.2.9-.7 1.5l.2.3.6-.9.4-.5.5-.2.7-.2 1-1.4C8 4.5 8.8 3.6 8.3 2zM3.6 9.4c.4-.1.3-.4 0-.8 0 .3-.1.5 0 .8z" fill="#0E8784"/></svg>